<svg t="1654437954399" class="icon" viewBox="0 0 1024 1024" version="1.1" xmlns="http://www.w3.org/2000/svg" p-id="5032" width="200" height="200"><path d="M784.222 793.944V385.611H667.556V249.5h-58.333v136.111h-68.056V249.5h-58.333v136.111h-68.056V249.5h-58.333v136.111H239.778V793.944H162v58.333h700v-58.333h-77.778z m-58.333 0H298.111v-167.82l7.925 7.925 41.248-41.248 41.248 41.248 41.247-41.248 41.248 41.248 41.247-41.248 41.248 41.248 41.248-41.248 40.698 40.698 41.248-41.248 41.248 41.248 7.923-7.925v168.37z m0-250.864l-7.923 7.923-41.248-41.248-41.248 41.248-40.698-40.698-0.551-0.551-41.248 41.248-40.698-40.698-41.247 41.248-41.248-41.248-41.247 41.248-41.248-41.248-41.248 41.248-7.925-7.925v-99.684H725.89v99.137zM356.444 171.722h58.333v58.333h-58.333zM482.833 171.722h58.333v58.333h-58.333zM609.222 171.722h58.333v58.333h-58.333z" p-id="5033" fill="#ffffff"></path></svg>