<svg t="1654442409496" class="icon" viewBox="0 0 1024 1024" version="1.1" xmlns="http://www.w3.org/2000/svg" p-id="8479" width="200" height="200"><path d="M575.453271 0.000739a448.361175 448.361175 0 0 0-344.987988 734.208365l-47.928688 47.928689-84.768478-84.275638a43.493129 43.493129 0 0 0-60.003268 0 42.384239 42.384239 0 0 0 0 59.880058l84.398848 84.275638L12.38359 951.674747a42.384239 42.384239 0 0 0 60.003268 59.880058l109.656897-109.656897 84.275637 83.782798a42.384239 42.384239 0 1 0 59.880058-59.880058l-84.275637-84.275637 47.928688-47.928689A448.484385 448.484385 0 1 0 575.453271 0.000739z m0 812.323503A363.839118 363.839118 0 1 1 939.292389 448.485124 364.085538 364.085538 0 0 1 575.453271 812.324242z" fill="#ffffff" p-id="8480"></path></svg>